<svg xmlns="http://www.w3.org/2000/svg" viewBox="0 0 303.85 61.25"><defs><style>.cls-1{fill:#1d1f23;}.cls-2{fill:#219fda;}</style></defs><g id="Слой_2" data-name="Слой 2"><g id="Слой_1-2" data-name="Слой 1"><polygon class="cls-1" points="90.45 22.62 80.84 22.62 80.84 33.24 74.81 33.24 74.81 6.87 80.84 6.87 80.84 16.97 90.45 16.97 90.45 6.87 96.47 6.87 96.47 33.24 90.45 33.24 90.45 22.62 90.45 22.62"/><path class="cls-1" d="M115.11,6.87h5.39l11,26.37H125l-2.18-5.54H112.4l-2.19,5.54h-6.07l11-26.37Zm-.45,15.18h5.91l-2.94-7.46-3,7.46Z" transform="translate(0 0)"/><path class="cls-1" d="M147.52,30c-7-.08-11.71-3.73-11.71-10.32s4.78-10.14,11.71-10.32V6.57h6V9.36c6.86.15,11.79,3.88,11.79,10.32S160.56,29.92,153.55,30v3.54h-6V30Zm0-5.54V14.89c-3.84.12-5.31,2.23-5.31,4.79,0,3.05,1.62,4.71,5.31,4.78m6-9.57v9.57c4-.07,5.39-1.69,5.39-4.78,0-2.49-1.36-4.67-5.39-4.79" transform="translate(0 0)"/><polygon class="cls-1" points="170.88 6.87 192.73 6.87 192.73 12.52 184.82 12.52 184.82 33.24 178.79 33.24 178.79 12.52 170.88 12.52 170.88 6.87 170.88 6.87"/><path class="cls-1" d="M212.75,6.42c8,0,14,5.23,14,13.64,0,8-6,13.63-14,13.63s-14-5.23-14-13.63c0-7.65,5.61-13.64,14-13.64m0,21.62c5,0,7.61-3.54,7.61-8,0-4.83-3.35-8-7.61-8s-7.61,3.16-7.61,8a7.72,7.72,0,0,0,7.61,8" transform="translate(0 0)"/><polygon class="cls-2" points="236 6.87 251.06 6.87 251.06 12.52 242.02 12.52 242.02 33.24 236 33.24 236 6.87 236 6.87"/><path class="cls-2" d="M264.39,6.87h5.38l11,26.37h-6.45l-2.18-5.54H261.67l-2.18,5.54h-6.07l11-26.37Zm-.46,15.18h5.92l-2.94-7.46-3,7.46Z" transform="translate(0 0)"/><path class="cls-2" d="M284.94,29l3.27-4.11c1.55,1.73,3.77,3.2,5.92,3.2,1.62,0,3.69-.64,3.69-2.79,0-1.54-1.24-2.67-4.11-2.67H291.3V16.93h2.26c1.74,0,3.24-.75,3.24-2.41s-1.2-2.45-2.9-2.45-3.27.79-4.67,2.75l-3.46-4.07a10.94,10.94,0,0,1,8.93-4.33c4.7,0,8.13,2.6,8.13,7.42a6.79,6.79,0,0,1-3.31,5.61v.12c3.12,1,4.33,3.27,4.33,6.29,0,4.86-4.75,7.83-9.46,7.83-5.35,0-8.06-2.63-9.45-4.74" transform="translate(0 0)"/><polygon class="cls-1" points="74.94 59.13 77.07 59.13 77.07 47.72 82.68 47.72 82.68 45.67 74.94 45.67 74.94 59.13 74.94 59.13"/><path class="cls-1" d="M89.56,45.64l-1.79,0-1.58,0H85.9V59.13H88V54.2c.57,0,1.2,0,1.65,0,3.4,0,4.92-2.18,4.92-4.33,0-1.29-.49-4.28-5-4.28m2.82,4.26c0,1.47-1,2.31-2.75,2.31-.5,0-1,0-1.59-.07V47.71l1.66,0c1.78,0,2.68.74,2.68,2.22" transform="translate(0 0)"/><path class="cls-1" d="M103.49,53.42l-4.62-7.74H96.44l6,9.94-.16.34c-.36.77-.8,1.15-1.33,1.15a1.31,1.31,0,0,1-.83-.29l-.29-.19-.76,1.84.16.13a3,3,0,0,0,1.74.53c1.47,0,2.47-.91,3.46-3.12l4.64-10.33h-2.21l-3.39,7.74Z" transform="translate(0 0)"/><polygon class="cls-1" points="112.21 59.13 114.34 59.13 114.34 47.72 120.77 47.72 120.77 59.13 122.9 59.13 122.9 45.67 112.21 45.67 112.21 59.13 112.21 59.13"/><path class="cls-1" d="M133.54,45.6h-1.72L126,59.13h2.19l1.64-3.91h5.5L137,59.13h2.29L133.54,45.6Zm1,7.58h-3.78l1.89-4.49,1.89,4.49Z" transform="translate(0 0)"/><path class="cls-2" d="M59.57,20.4a.32.32,0,0,1,.09,0,24.82,24.82,0,0,0-10-13.78A13.38,13.38,0,0,0,42.4,4.17,7.52,7.52,0,0,0,38.77,5a7.44,7.44,0,0,0-4.1,6.68c0,4.66,2.7,7.41,6.79,11.57A76,76,0,0,1,48.31,31a20.09,20.09,0,0,1,2.47,18.7A20.49,20.49,0,0,1,46.24,57s0,0-.06.06A25.44,25.44,0,0,0,57,45.62c4.53-9.73,1.17-16.48-.84-20.52-1-2.07-1.77-3.59-1-4.72.87-1.31,2.47-1.37,4.44,0" transform="translate(0 0)"/><path class="cls-1" d="M37.43,43.48c-2.88-4.46-7-6-11.3-7.7s-8.63-3.33-12.37-7.71A19.28,19.28,0,0,1,9.4,12.54a20.32,20.32,0,0,1,1.42-5,.66.66,0,0,1,0-.15c-.43.33-.86.68-1.27,1A30.45,30.45,0,0,0,0,30.62,30.8,30.8,0,0,0,21.88,60a15.29,15.29,0,0,0,3.8.49A13,13,0,0,0,36.36,55.2a12.11,12.11,0,0,0,2.19-5.48,9.06,9.06,0,0,0-1.12-6.24" transform="translate(0 0)"/><path class="cls-2" d="M46,32.74a72,72,0,0,0-6.6-7.43c-4.25-4.34-7.61-7.75-7.61-13.59s4.35-9.21,8.43-10.19c-.2-.07-.44-.1-.65-.16A31.35,31.35,0,0,0,30.62,0,23.59,23.59,0,0,0,17.84,3.33C15.06,5,12.87,8.78,12.26,13A16.53,16.53,0,0,0,16,26.19c3.27,3.83,7.31,5.39,11.21,6.89,4.57,1.76,9.29,3.59,12.69,8.83,2.3,3.57,2.28,8.56.15,12.83-.14.29-.3.56-.46.83l-.13.24a12.62,12.62,0,0,1-7.24,5.44,23.92,23.92,0,0,0,4.31-1l.41-.12c.18-.06.35-.15.52-.22s.64-.26.95-.41l.6-.28c.48-.24,1-.52,1.42-.81l.19-.12a17.47,17.47,0,0,0,1.51-1.09l.12-.1q.67-.56,1.32-1.2c.1-.12.22-.24.33-.35.29-.31.57-.63.85-1s.43-.53.63-.8.43-.6.64-.91l.3-.44.08-.13v0a19.9,19.9,0,0,0,1.7-3.54,17.18,17.18,0,0,0-2.07-16" transform="translate(0 0)"/></g></g></svg>