<svg width="217" height="42" viewBox="0 0 217 42" fill="none" xmlns="http://www.w3.org/2000/svg">
<g clip-path="url(#clip0_1_157)">
<mask id="mask0_1_157" style="mask-type:luminance" maskUnits="userSpaceOnUse" x="0" y="0" width="217" height="42">
<path d="M216.519 0H0V42H216.519V0Z" fill="white"/>
</mask>
<g mask="url(#mask0_1_157)">
<path d="M7.82497 4.89227C7.5023 5.2028 7.17961 5.51335 6.85693 5.74625C7.17961 5.51335 7.42162 5.28045 7.74431 5.04754C7.74431 5.04754 7.82497 4.9699 7.82497 4.89227Z" fill="#1A1919"/>
<path d="M26.2985 41.2252C25.9757 41.3029 25.653 41.3805 25.3303 41.4582C25.653 41.4582 25.9757 41.3805 26.2985 41.2252Z" fill="#1A1919"/>
<path d="M42.4323 13.975C42.5131 13.975 42.5131 13.975 42.4323 13.975C41.3837 10.1709 38.8829 6.91032 35.414 4.58131C33.8007 3.49443 31.8646 2.87335 30.2512 2.87335C29.2831 2.87335 28.3958 3.10625 27.6698 3.49443C25.7336 4.58131 24.7656 6.13398 24.7656 8.07483C24.7656 11.2578 26.7018 13.121 29.6058 15.9935C31.1385 17.4686 32.8327 19.1765 34.5267 21.2726C37.2694 24.7661 37.9149 29.6571 36.3014 34.0823C35.5754 36.023 34.446 37.731 33.0747 39.1285C33.0747 39.1285 33.0747 39.1285 32.9939 39.206C36.4628 37.3429 39.0442 34.6257 40.6577 31.365C43.8844 24.6885 41.4643 20.0305 40.093 17.3133C39.2862 15.7606 38.7215 14.7513 39.2862 13.975C39.9316 13.0434 41.061 13.0434 42.4323 13.975Z" fill="#008EC1"/>
<path d="M26.7018 29.8123C24.685 26.7846 21.7002 25.6977 18.6347 24.5332C15.5693 23.3687 12.5038 22.2818 9.84174 19.2541C7.17963 16.304 6.13092 12.4999 6.69561 8.61822C6.85695 7.37608 7.2603 6.21157 7.74432 5.20232C7.74432 5.20232 7.74432 5.12469 7.82498 5.12469C7.42164 5.27997 7.09896 5.51287 6.85695 5.74577C2.50077 9.7051 0 15.1395 0 21.0397C0 30.2005 6.37293 38.5074 15.5693 41.1468C16.4567 41.3798 17.344 41.4574 18.3121 41.4574C21.3775 41.4574 24.201 40.1377 25.895 37.8862C26.7824 36.7218 27.2665 35.4019 27.4278 34.1598C27.7504 32.5295 27.5084 31.0545 26.7018 29.8123Z" fill="#1A1919"/>
<path d="M32.752 22.4363C31.1386 20.4177 29.5252 18.7874 28.0731 17.3124C25.0077 14.3623 22.6683 11.9557 22.6683 7.9963C22.6683 3.8817 25.7337 1.70795 28.6378 1.00924C28.4765 0.931608 28.3151 0.931608 28.1539 0.931608C26.1371 0.38817 23.959 0 21.8616 0C18.312 0 15.4886 0.698706 12.7459 2.25139C10.7291 3.4159 9.19636 5.97781 8.793 8.85028C8.47033 10.7911 8.47033 14.5952 11.4551 17.9334C13.7945 20.573 16.6987 21.6599 19.4415 22.6692C22.6683 23.9113 26.0564 25.1535 28.4765 28.7246C30.0899 31.1312 30.0899 34.6248 28.5572 37.4973C28.4765 37.7301 28.3151 37.8854 28.2345 38.0407C28.2345 38.1183 28.1539 38.1183 28.1539 38.196C26.9438 40.0591 25.0077 41.4566 22.991 41.9224C24.0396 41.7671 25.0883 41.5342 26.0564 41.2237C26.1371 41.2237 26.2177 41.146 26.3791 41.146C26.5404 41.0684 26.621 41.0684 26.7824 40.9907C27.0244 40.9131 27.2665 40.8356 27.4278 40.6803C27.5891 40.6026 27.7504 40.525 27.8312 40.4473C28.1537 40.292 28.4765 40.0591 28.8798 39.9039C28.9605 39.9039 28.9605 39.8263 29.0411 39.8263C29.4445 39.5934 29.7672 39.3604 30.0899 39.0499L30.1705 38.9723C30.4932 38.7394 30.8159 38.4288 31.1386 38.1183C31.2193 38.0407 31.2999 37.963 31.3806 37.8854C31.6226 37.6525 31.7839 37.4196 32.0259 37.1867C32.1873 37.0314 32.3486 36.7985 32.51 36.6433C32.6713 36.4104 32.8327 36.2551 32.9941 36.0222C33.0747 35.9445 33.1553 35.7893 33.236 35.7117C33.236 35.7117 33.236 35.634 33.3166 35.634C33.8007 34.8577 34.204 34.0814 34.5268 33.2274C35.6561 29.6562 35.0914 25.4639 32.752 22.4363Z" fill="#008EC1"/>
<path d="M64.4553 15.5261H57.5985V22.8238H53.323V4.73505H57.5985V11.6445H64.4553V4.73505H68.7308V22.8238H64.4553V15.5261Z" fill="#1A1919"/>
<path d="M82.041 4.73505H85.9132L93.7382 22.8238H89.1401L87.6073 19.0197H80.1856L78.6529 22.8238H74.2161L82.041 4.73505ZM81.7184 15.138H85.9132L83.8158 10.0142L81.7184 15.138Z" fill="#1A1919"/>
<path d="M105.114 20.5729C100.112 20.4952 96.7239 18.0109 96.7239 13.5081C96.7239 9.00539 100.112 6.5211 105.114 6.44347V4.50262H109.389V6.44347C114.31 6.5211 117.779 9.08303 117.779 13.5081C117.779 18.0109 114.391 20.5729 109.389 20.5729V22.9795H105.114V20.5729ZM105.114 16.7687V10.1699C102.371 10.2475 101.322 11.7226 101.322 13.4306C101.322 15.6043 102.532 16.6912 105.114 16.7687ZM109.47 10.2475V16.8464C112.293 16.7687 113.342 15.6819 113.342 13.5858C113.261 11.8003 112.293 10.3252 109.47 10.2475Z" fill="#1A1919"/>
<path d="M121.811 4.73505H137.38V8.61676H131.734V22.8238H127.459V8.61676H121.811V4.73505Z" fill="#1A1919"/>
<path d="M151.66 4.42511C157.388 4.42511 161.662 7.99628 161.662 13.7412C161.662 19.2532 157.388 23.0573 151.66 23.0573C145.932 23.0573 141.657 19.4861 141.657 13.7412C141.657 8.53971 145.609 4.42511 151.66 4.42511ZM151.66 19.2532C155.209 19.2532 157.064 16.8465 157.064 13.7412C157.064 10.4029 154.644 8.22918 151.66 8.22918C148.514 8.22918 146.255 10.4029 146.255 13.7412C146.174 16.8465 148.594 19.2532 151.66 19.2532Z" fill="#1A1919"/>
<path d="M168.197 4.73505H178.926V8.61676H172.473V22.8238H168.197V4.73505Z" fill="#008EC1"/>
<path d="M188.446 4.73505H192.318L200.143 22.8238H195.545L194.011 19.0197H186.59L185.057 22.8238H180.702L188.446 4.73505ZM188.123 15.138H192.318L190.221 10.0142L188.123 15.138Z" fill="#008EC1"/>
<path d="M203.047 19.8745L205.386 17.0797C206.516 18.2441 208.049 19.2534 209.581 19.2534C210.711 19.2534 212.243 18.7875 212.243 17.3125C212.243 16.2257 211.356 15.4494 209.34 15.4494H207.645V11.5676H209.258C210.468 11.5676 211.598 11.0242 211.598 9.93731C211.598 8.7728 210.711 8.22937 209.501 8.22937C208.291 8.22937 207.161 8.7728 206.193 10.0926L203.693 7.29775C204.903 5.58981 207.322 4.34766 210.066 4.34766C213.453 4.34766 215.874 6.13324 215.874 9.4715C215.874 10.7913 215.228 12.2663 213.534 13.3532V13.4308C215.793 14.1295 216.6 15.6822 216.6 17.7784C216.6 21.1166 213.212 23.1351 209.823 23.1351C206.031 23.1351 204.095 21.2718 203.047 19.8745Z" fill="#008EC1"/>
<path d="M53.323 33.5371H57.4371V34.7016H54.6136V40.5242H53.323V33.5371Z" fill="#1A1919"/>
<path d="M59.8571 33.4597H60.9865L64.052 40.4467H62.6806L61.9547 38.6611H58.8891L58.0825 40.5243H56.7917L59.8571 33.4597ZM59.2925 37.5743H61.3898L60.3412 35.09L59.2925 37.5743Z" fill="#1A1919"/>
<path d="M64.4551 39.4377L65.1811 38.5837C65.6651 39.0495 66.3105 39.4377 66.8752 39.4377C67.6012 39.4377 68.2465 39.1271 68.2465 38.4284C68.2465 37.885 67.8432 37.4968 66.9558 37.4968H66.2298V36.3322H66.9558C67.5205 36.3322 68.0045 36.0218 68.0045 35.4007C68.0045 34.7796 67.5205 34.5467 66.9558 34.5467C66.3911 34.5467 65.907 34.7796 65.5037 35.3231L64.7777 34.4691C65.2617 33.8479 66.1491 33.3822 67.1171 33.3822C68.4079 33.3822 69.2953 34.0809 69.2953 35.3231C69.2953 35.8665 68.9726 36.4875 68.3273 36.8757C69.2145 37.1087 69.618 37.7297 69.618 38.506C69.618 39.8258 68.4079 40.6021 67.0365 40.6021C65.6651 40.6021 64.8584 39.9811 64.4551 39.4377Z" fill="#1A1919"/>
<path d="M74.4582 33.3822C76.6363 33.3822 78.2497 34.7796 78.2497 36.9534C78.2497 39.0495 76.6363 40.5245 74.4582 40.5245C72.2802 40.5245 70.6667 39.1271 70.6667 36.9534C70.6667 35.0125 72.1994 33.3822 74.4582 33.3822ZM74.4582 39.4377C75.991 39.4377 76.8783 38.3508 76.8783 36.9534C76.8783 35.4784 75.8296 34.4691 74.4582 34.4691C73.0868 34.4691 72.0381 35.4784 72.0381 36.9534C72.0381 38.4284 73.0868 39.4377 74.4582 39.4377Z" fill="#1A1919"/>
<path d="M84.2196 34.6241H80.9929V40.4467H79.7021V33.4597H85.5104V40.4467H84.2196V34.6241Z" fill="#1A1919"/>
<path d="M90.7543 33.3822C92.9325 33.3822 94.5459 34.7796 94.5459 36.9534C94.5459 39.0495 92.9325 40.5245 90.7543 40.5245C88.5762 40.5245 86.9629 39.1271 86.9629 36.9534C86.9629 35.0125 88.4956 33.3822 90.7543 33.3822ZM90.7543 39.4377C92.287 39.4377 93.1744 38.3508 93.1744 36.9534C93.1744 35.4784 92.1258 34.4691 90.7543 34.4691C89.383 34.4691 88.3342 35.4784 88.3342 36.9534C88.3342 38.4284 89.383 39.4377 90.7543 39.4377Z" fill="#1A1919"/>
<path d="M101.563 39.8257C101.079 40.2914 100.192 40.602 99.2238 40.602C96.965 40.602 95.5129 39.2046 95.5129 37.0308C95.5129 35.0124 96.8037 33.4597 99.2238 33.4597C100.192 33.4597 100.918 33.7702 101.402 34.1584L100.837 35.09C100.434 34.7794 99.9498 34.6241 99.2238 34.6241C97.8524 34.6241 96.8843 35.5558 96.8843 37.1084C96.8843 38.5835 97.933 39.5927 99.3851 39.5927C100.03 39.5927 100.595 39.4374 101.079 39.0493L101.563 39.8257Z" fill="#1A1919"/>
<path d="M101.887 33.5371H107.856V34.7016H105.517V40.5242H104.226V34.7016H101.887V33.5371Z" fill="#1A1919"/>
<path d="M110.518 33.4597H111.647L114.712 40.4467H113.341L112.615 38.6611H109.549L108.823 40.4467H107.533L110.518 33.4597ZM109.953 37.5743H112.05L111.002 35.09L109.953 37.5743Z" fill="#1A1919"/>
<path d="M119.956 40.5242H118.666V37.6517C118.343 37.8846 117.698 38.1176 116.972 38.1176C115.842 38.1176 114.793 37.5741 114.793 35.8661V33.5371H116.084V35.5556C116.084 36.6424 116.649 37.0306 117.375 37.0306C117.94 37.0306 118.424 36.7977 118.746 36.5648V33.5371H120.037V40.5242H119.956Z" fill="#1A1919"/>
<path d="M124.151 33.4597H125.281L128.346 40.4467H126.974L126.248 38.6611H123.183L122.457 40.4467H121.166L124.151 33.4597ZM123.587 37.5743H125.684L124.636 35.09L123.587 37.5743Z" fill="#1A1919"/>
<path d="M133.671 34.6241H131.492L131.331 35.944C130.927 39.9809 129.96 40.6796 128.508 40.4467V39.2046C129.072 39.2821 129.799 39.0493 130.121 34.8571L130.201 33.4597H134.799V40.4467H133.509V34.6241H133.671Z" fill="#1A1919"/>
<path d="M138.189 35.9437C138.512 35.8661 138.834 35.8661 138.995 35.8661C140.85 35.8661 141.737 36.7201 141.737 38.1176C141.737 39.5926 140.689 40.5242 138.753 40.5242C138.027 40.5242 137.382 40.5242 136.898 40.5242V33.5371H138.189V35.9437ZM138.189 37.0306V39.282C138.43 39.282 138.673 39.282 138.914 39.282C139.883 39.282 140.448 38.8939 140.448 38.0399C140.448 37.2636 139.883 36.8754 138.914 36.8754C138.753 37.0306 138.512 37.0306 138.189 37.0306Z" fill="#1A1919"/>
<path d="M147.869 37.4966H144.561V40.4467H143.271V33.4597H144.561V36.3321H147.869V33.4597H149.159V40.4467H147.869V37.4966Z" fill="#1A1919"/>
<path d="M153.273 33.4597H154.402L157.468 40.4467H156.097L155.371 38.6611H152.305L151.579 40.4467H150.289L153.273 33.4597ZM152.709 37.5743H154.806L153.757 35.09L152.709 37.5743Z" fill="#1A1919"/>
<path d="M160.775 33.5371H162.066V36.8754L164.89 33.5371H166.422L163.437 36.7977L166.583 40.5242H164.97L161.985 36.953V40.5242H160.695V33.5371H160.775Z" fill="#1A1919"/>
<path d="M170.536 33.3822C172.715 33.3822 174.328 34.7796 174.328 36.9534C174.328 39.0495 172.715 40.5245 170.536 40.5245C168.359 40.5245 166.746 39.1271 166.746 36.9534C166.746 35.0125 168.278 33.3822 170.536 33.3822ZM170.536 39.4377C172.07 39.4377 172.957 38.3508 172.957 36.9534C172.957 35.4784 171.909 34.4691 170.536 34.4691C169.165 34.4691 168.117 35.4784 168.117 36.9534C168.117 38.4284 169.165 39.4377 170.536 39.4377Z" fill="#1A1919"/>
<path d="M175.78 33.5371H177.071L179.572 36.7977L181.91 33.5371H183.12V40.5242H181.83V35.478L179.572 38.5833H179.409L177.071 35.478V40.5242H175.78V33.5371Z" fill="#1A1919"/>
<path d="M189.656 34.6241H186.429V40.4467H185.139V33.4597H190.947V40.4467H189.656V34.6241Z" fill="#1A1919"/>
<path d="M195.14 33.4597H196.27L199.335 40.4467H197.963L197.237 38.6611H194.173L193.446 40.4467H191.994L195.14 33.4597ZM194.575 37.5743H196.674L195.624 35.09L194.575 37.5743Z" fill="#1A1919"/>
<path d="M204.982 37.4966H201.675V40.4467H200.384V33.4597H201.675V36.3321H204.982V33.4597H206.274V40.4467H204.982V37.4966Z" fill="#1A1919"/>
<path d="M208.451 33.5371H209.742V40.5242H208.451V33.5371Z" fill="#1A1919"/>
<path d="M215.148 38.1176H214.099L212.486 40.5242H211.033L212.889 37.8846C212.243 37.5741 211.598 36.953 211.598 35.9437C211.598 34.624 212.486 33.5371 214.583 33.5371C215.066 33.5371 215.954 33.5371 216.358 33.5371V40.5242H215.066V38.1176H215.148ZM215.148 36.953V34.7016C214.986 34.7016 214.583 34.7016 214.34 34.7016C213.534 34.7016 212.969 35.1674 212.969 35.8661C212.969 36.4871 213.453 36.8754 214.018 36.953H215.148Z" fill="#1A1919"/>
</g>
</g>
<defs>
<clipPath id="clip0_1_157">
<rect width="217" height="42" fill="white"/>
</clipPath>
</defs>
</svg>
