<svg id="Слой_1" data-name="Слой 1" xmlns="http://www.w3.org/2000/svg" viewBox="0 0 339.32 81.96"><defs><style>.cls-1{fill:#fff;}</style></defs><polygon class="cls-1" points="108.63 32.59 99.02 32.59 99.02 43.22 92.99 43.22 92.99 16.85 99.02 16.85 99.02 26.95 108.63 26.95 108.63 16.85 114.66 16.85 114.66 43.22 108.63 43.22 108.63 32.59"/><path class="cls-1" d="M132.84,32h5.91l-2.93-7.46Zm.45-15.18h5.39l11,26.37H143.2L141,37.68H130.58l-2.19,5.54h-6.06Z"/><path class="cls-1" d="M171.73,24.87v9.57c4-.07,5.39-1.69,5.39-4.78,0-2.49-1.36-4.68-5.39-4.79m-6,9.57V24.87c-3.85.11-5.32,2.22-5.32,4.79,0,3.05,1.62,4.71,5.32,4.78m0,5.54C158.66,39.9,154,36.25,154,29.66s4.78-10.14,11.72-10.33V16.55h6v2.78c6.86.15,11.79,3.88,11.79,10.33S178.74,39.9,171.73,40v3.54h-6Z"/><polygon class="cls-1" points="189.06 16.85 210.91 16.85 210.91 22.5 203 22.5 203 43.22 196.97 43.22 196.97 22.5 189.06 22.5 189.06 16.85"/><path class="cls-1" d="M230.93,38c5,0,7.61-3.54,7.61-8,0-4.82-3.35-8-7.61-8s-7.61,3.16-7.61,8a7.73,7.73,0,0,0,7.61,8m0-21.62c8,0,14,5.23,14,13.63,0,8-6,13.64-14,13.64s-14-5.24-14-13.64c0-7.64,5.61-13.63,14-13.63"/><polygon class="cls-1" points="254.18 16.85 269.25 16.85 269.25 22.5 260.2 22.5 260.2 43.22 254.18 43.22 254.18 16.85"/><path class="cls-1" d="M282.12,32H288l-2.94-7.46Zm.45-15.18H288l11,26.37h-6.44l-2.19-5.54H279.85l-2.18,5.54H271.6Z"/><path class="cls-1" d="M303.12,38.92l3.28-4.1c1.54,1.73,3.76,3.2,5.91,3.2,1.62,0,3.69-.64,3.69-2.79,0-1.54-1.24-2.67-4.1-2.67h-2.41V26.91h2.26c1.73,0,3.24-.76,3.24-2.41s-1.21-2.45-2.9-2.45-3.28.79-4.68,2.75L304,20.73a10.94,10.94,0,0,1,8.93-4.33c4.7,0,8.13,2.6,8.13,7.42a6.79,6.79,0,0,1-3.31,5.61v.11c3.13,1,4.33,3.28,4.33,6.3,0,4.86-4.75,7.83-9.45,7.83-5.35,0-8.07-2.64-9.46-4.75"/><polygon class="cls-1" points="93.12 69.1 95.25 69.1 95.25 57.69 100.86 57.69 100.86 55.65 93.12 55.65 93.12 69.1"/><path class="cls-1" d="M110.57,59.88c0,1.47-1,2.31-2.76,2.31-.5,0-1,0-1.59-.07V57.68l1.67,0c1.77,0,2.68.74,2.68,2.22m-2.83-4.26-1.78,0h-1.87V69.1h2.13V64.18c.57,0,1.21,0,1.65,0,3.4,0,4.92-2.18,4.92-4.33,0-1.29-.49-4.28-5.05-4.28"/><path class="cls-1" d="M121.68,63.4l-4.63-7.75h-2.43l6,9.95-.16.34c-.36.77-.79,1.14-1.32,1.14a1.35,1.35,0,0,1-.84-.28l-.28-.19-.77,1.84.17.13a3,3,0,0,0,1.74.52c1.46,0,2.46-.9,3.46-3.11l4.63-10.34h-2.21Z"/><polygon class="cls-1" points="130.4 69.1 132.53 69.1 132.53 57.69 138.95 57.69 138.95 69.1 141.08 69.1 141.08 55.65 130.4 55.65 130.4 69.1"/><path class="cls-1" d="M152.71,63.16h-3.79l1.89-4.49Zm-1-7.58H150L144.22,69.1h2.2l1.64-3.9h5.5l1.65,3.9h2.29Z"/><path class="cls-1" d="M77.75,30.38l.09,0a24.79,24.79,0,0,0-10-13.78,13.38,13.38,0,0,0-7.27-2.48A7.52,7.52,0,0,0,57,15a7.44,7.44,0,0,0-4.1,6.68c0,4.66,2.7,7.41,6.79,11.57A74.8,74.8,0,0,1,66.49,41a20.59,20.59,0,0,1-2.07,26s0,0,0,.07A25.42,25.42,0,0,0,75.17,55.6c4.53-9.73,1.17-16.49-.84-20.52-1-2.08-1.77-3.59-1-4.72.87-1.31,2.47-1.37,4.44,0"/><path class="cls-1" d="M55.61,53.46c-2.88-4.47-7-6-11.29-7.7S35.68,42.43,32,38.05a19.25,19.25,0,0,1-4.37-15.53,20.32,20.32,0,0,1,1.42-5,.39.39,0,0,1,.06-.15c-.44.33-.86.67-1.28,1a30.45,30.45,0,0,0-9.6,22.21A30.8,30.8,0,0,0,40.06,70a15.35,15.35,0,0,0,3.8.49,13,13,0,0,0,10.68-5.26,12.28,12.28,0,0,0,2.2-5.48,9.12,9.12,0,0,0-1.13-6.24"/><path class="cls-1" d="M64.17,42.72a72,72,0,0,0-6.59-7.43C53.32,31,50,27.53,50,21.7s4.34-9.21,8.43-10.19c-.21-.07-.44-.1-.65-.16a31.47,31.47,0,0,0-9-1.37A23.44,23.44,0,0,0,36,13.31c-2.79,1.68-5,5.45-5.59,9.63a16.5,16.5,0,0,0,3.7,13.22c3.27,3.84,7.31,5.4,11.21,6.9,4.58,1.76,9.29,3.59,12.69,8.83,2.3,3.57,2.29,8.56.15,12.83-.14.28-.29.56-.45.83-.05.08-.1.16-.14.24a12.62,12.62,0,0,1-7.24,5.44,23.72,23.72,0,0,0,4.31-1l.41-.12c.18-.06.35-.15.52-.22s.64-.26.95-.41l.6-.28c.48-.24,1-.52,1.42-.81l.2-.12a16.9,16.9,0,0,0,1.5-1.1l.12-.09q.68-.55,1.32-1.2l.33-.35c.29-.31.58-.63.85-1a9.77,9.77,0,0,0,.63-.81c.22-.29.43-.59.64-.9.1-.15.2-.29.3-.45a.74.74,0,0,0,.08-.13h0a18.61,18.61,0,0,0,1.7-3.54,17.17,17.17,0,0,0-2.07-16"/></svg>