<svg width="53" height="41" viewBox="0 0 53 41" fill="none" xmlns="http://www.w3.org/2000/svg">
<path d="M14.6733 0.683362C15.0204 0.414141 15.4154 0.218259 15.8358 0.1069C16.2561 -0.00445945 16.6935 -0.0291154 17.1231 0.0343406C17.5526 0.0977966 17.9659 0.248122 18.3392 0.476732C18.7126 0.705343 19.0388 1.00776 19.2991 1.36672C19.5595 1.72569 19.7489 2.13416 19.8566 2.56882C19.9643 3.00349 19.9881 3.45583 19.9268 3.90002C19.8654 4.34421 19.72 4.77155 19.4989 5.15765C19.2779 5.54375 18.9854 5.88104 18.6383 6.15026C13.4706 10.1582 10.51 14.0567 8.81501 17.4599C11.1424 16.8404 13.5986 16.986 15.8422 17.8766C18.0858 18.7672 20.0054 20.3584 21.3341 22.4292C22.6628 24.4999 23.3347 26.9473 23.2564 29.4311C23.178 31.915 22.3533 34.3119 20.8968 36.2887C19.4404 38.2654 17.4246 39.7239 15.1296 40.4614C12.8346 41.1988 10.3745 41.1786 8.09111 40.4035C5.80776 39.6284 3.81463 38.137 2.38876 36.1365C0.9629 34.136 0.175137 31.7259 0.13497 29.241C-0.288418 25.045 0.287855 20.8055 1.81349 16.8927C3.78607 11.747 7.64203 6.13659 14.6733 0.683362ZM44.4108 0.683362C44.7579 0.414141 45.1529 0.218259 45.5733 0.1069C45.9936 -0.00445945 46.431 -0.0291154 46.8606 0.0343406C47.2901 0.0977966 47.7034 0.248122 48.0767 0.476732C48.4501 0.705343 48.7763 1.00776 49.0366 1.36672C49.297 1.72569 49.4864 2.13416 49.5941 2.56882C49.7018 3.00349 49.7256 3.45583 49.6642 3.90002C49.6029 4.34421 49.4575 4.77155 49.2364 5.15765C49.0154 5.54375 48.7229 5.88104 48.3758 6.15026C43.2081 10.1582 40.2475 14.0567 38.5525 17.4599C40.8799 16.8404 43.336 16.986 45.5797 17.8766C47.8233 18.7672 49.7429 20.3584 51.0716 22.4292C52.4003 24.4999 53.0722 26.9473 52.9938 29.4311C52.9155 31.915 52.0908 34.3119 50.6343 36.2887C49.1779 38.2654 47.1621 39.7239 44.8671 40.4614C42.5721 41.1988 40.1119 41.1786 37.8286 40.4035C35.5452 39.6284 33.5521 38.137 32.1262 36.1365C30.7004 34.136 29.9126 31.7259 29.8725 29.241C29.4491 25.045 30.0253 20.8055 31.551 16.8927C33.5269 11.747 37.3795 6.13659 44.4108 0.683362Z" fill="#008EC1"/>
</svg>
