<svg width="34" height="34" viewBox="0 0 34 34" fill="none" xmlns="http://www.w3.org/2000/svg">
<path d="M16.5821 2.76367C8.95431 2.76367 2.76367 8.95431 2.76367 16.5821C2.76367 24.2098 8.95431 30.4005 16.5821 30.4005C24.2098 30.4005 30.4005 24.2098 30.4005 16.5821C30.4005 8.95431 24.2098 2.76367 16.5821 2.76367ZM22.9938 12.1602C22.7865 14.3435 21.8883 19.6497 21.4323 22.0956C21.2389 23.132 20.8519 23.4774 20.4927 23.5189C19.6912 23.588 19.0832 22.9938 18.3094 22.4825C17.0933 21.6811 16.4024 21.1836 15.2279 20.4098C13.8598 19.5116 14.7442 19.0141 15.5319 18.2126C15.7391 18.0054 19.2767 14.7857 19.3457 14.4955C19.3553 14.4515 19.3541 14.4059 19.342 14.3626C19.33 14.3192 19.3075 14.2795 19.2767 14.2468C19.1937 14.1777 19.0832 14.2053 18.9865 14.2191C18.8621 14.2468 16.9275 15.5319 13.1551 18.0745C12.6024 18.4475 12.1049 18.641 11.6627 18.6272C11.1653 18.6134 10.2256 18.3508 9.52087 18.1159C8.65031 17.8395 7.97321 17.6875 8.02848 17.2039C8.05612 16.9552 8.40158 16.7064 9.05104 16.4439C13.086 14.6889 15.7668 13.5282 17.1072 12.9755C20.9487 11.3725 21.7363 11.0962 22.2614 11.0962C22.372 11.0962 22.6345 11.1238 22.8003 11.262C22.9385 11.3725 22.98 11.5245 22.9938 11.6351C22.98 11.718 23.0076 11.9667 22.9938 12.1602Z" fill="#959595"/>
</svg>
