<svg width="33" height="33" viewBox="0 0 33 33" fill="none" xmlns="http://www.w3.org/2000/svg">
<path d="M30.366 8.04053C29.3341 8.50956 28.2218 8.81778 27.0694 8.96519C28.2486 8.25495 29.1599 7.12927 29.5887 5.77578C28.4765 6.44582 27.2436 6.91486 25.9437 7.18287C24.885 6.0304 23.3975 5.36035 21.709 5.36035C18.5598 5.36035 15.9868 7.93332 15.9868 11.1093C15.9868 11.565 16.0404 12.0072 16.1342 12.4226C11.3635 12.1814 7.11542 9.88986 4.28783 6.41902C3.792 7.26328 3.51058 8.25495 3.51058 9.30022C3.51058 11.297 4.51565 13.0659 6.07015 14.0709C5.11869 14.0709 4.23423 13.8029 3.45697 13.4009V13.4411C3.45697 16.2285 5.44031 18.5602 8.06689 19.0829C7.2236 19.3137 6.3383 19.3458 5.48051 19.1767C5.84449 20.3191 6.55732 21.3187 7.51881 22.035C8.4803 22.7513 9.64209 23.1483 10.8409 23.1702C8.8088 24.7788 6.28992 25.6484 3.69819 25.6359C3.24256 25.6359 2.78693 25.6091 2.3313 25.5555C4.87747 27.1904 7.90607 28.1419 11.1491 28.1419C21.709 28.1419 27.5116 19.3777 27.5116 11.7794C27.5116 11.5248 27.5116 11.2835 27.4982 11.0289C28.6239 10.2249 29.5887 9.20641 30.366 8.04053Z" fill="#959595"/>
</svg>
