<svg width="34" height="34" viewBox="0 0 34 34" fill="none" xmlns="http://www.w3.org/2000/svg">
<path d="M30.5686 9.59686C30.4035 8.98336 30.0801 8.424 29.6309 7.97475C29.1816 7.52551 28.6223 7.20213 28.0088 7.037C25.7495 6.42554 16.6708 6.42554 16.6708 6.42554C16.6708 6.42554 7.59211 6.42554 5.33281 7.037C4.71931 7.20213 4.15995 7.52551 3.7107 7.97475C3.26145 8.424 2.93808 8.98336 2.77295 9.59686C2.35109 11.901 2.14637 14.2397 2.16149 16.5821C2.14637 18.9245 2.35109 21.2631 2.77295 23.5673C2.93808 24.1807 3.26145 24.7401 3.7107 25.1894C4.15995 25.6386 4.71931 25.962 5.33281 26.1271C7.59211 26.7386 16.6708 26.7386 16.6708 26.7386C16.6708 26.7386 25.7495 26.7386 28.0088 26.1271C28.6223 25.962 29.1816 25.6386 29.6309 25.1894C30.0801 24.7401 30.4035 24.1807 30.5686 23.5673C30.9905 21.2631 31.1952 18.9245 31.1801 16.5821C31.1952 14.2397 30.9905 11.901 30.5686 9.59686ZM13.7689 20.9349V12.2293L21.3034 16.5821L13.7689 20.9349Z" fill="#959595"/>
</svg>
