<svg width="217" height="42" viewBox="0 0 217 42" fill="none" xmlns="http://www.w3.org/2000/svg"><g clip-path="url(#clip0_1_157)"><mask id="mask0_1_157" style="mask-type:luminance" maskUnits="userSpaceOnUse" x="0" y="0" width="217" height="42"><path d="M216.519 0H0v42h216.519V0z" fill="#fff"/></mask><g mask="url(#mask0_1_157)"><path d="M7.825 4.892c-.323.31-.645.621-.968.854.323-.233.565-.466.887-.698 0 0 .081-.078.081-.156zm18.474 36.333l-.969.233c.323 0 .646-.078.969-.233z" fill="#1A1919"/><path d="M42.432 13.975c.081 0 .081 0 0 0-1.048-3.804-3.55-7.065-7.018-9.394-1.613-1.087-3.55-1.708-5.163-1.708-.968 0-1.855.233-2.581.621-1.936 1.087-2.904 2.64-2.904 4.58 0 3.184 1.936 5.047 4.84 7.92 1.532 1.475 3.227 3.183 4.92 5.279 2.743 3.493 3.389 8.384 1.775 12.81a14.454 14.454 0 01-3.226 5.046l-.081.077c3.469-1.863 6.05-4.58 7.664-7.841 3.226-6.676.806-11.334-.565-14.052-.807-1.552-1.372-2.562-.807-3.338.646-.932 1.775-.932 3.146 0z" fill="#008EC1"/><path d="M26.702 29.812c-2.017-3.027-5.002-4.114-8.067-5.279-3.066-1.164-6.131-2.251-8.793-5.279C7.18 16.304 6.13 12.5 6.696 8.618c.161-1.242.564-2.406 1.048-3.416 0 0 0-.077.081-.077a2.91 2.91 0 00-.968.62C2.501 9.706 0 15.14 0 21.04c0 9.16 6.373 17.467 15.57 20.107.887.233 1.774.31 2.742.31 3.066 0 5.889-1.32 7.583-3.57a7.84 7.84 0 001.533-3.727c.322-1.63.08-3.105-.726-4.348z" fill="#1A1919"/><path d="M32.752 22.436c-1.613-2.018-3.227-3.649-4.679-5.124-3.065-2.95-5.405-5.356-5.405-9.316 0-4.114 3.066-6.288 5.97-6.987-.162-.077-.323-.077-.484-.077C26.137.388 23.959 0 21.862 0c-3.55 0-6.373.699-9.116 2.251-2.017 1.165-3.55 3.727-3.953 6.6-.323 1.94-.323 5.744 2.662 9.082 2.34 2.64 5.244 3.727 7.987 4.736 3.226 1.242 6.614 2.485 9.035 6.056 1.613 2.406 1.613 5.9.08 8.772-.08.233-.242.388-.322.544 0 .077-.081.077-.081.155-1.21 1.863-3.146 3.26-5.163 3.726a19.502 19.502 0 003.065-.698c.081 0 .162-.078.323-.078.161-.078.242-.078.403-.155.242-.078.485-.155.646-.31.161-.078.322-.156.403-.234.323-.155.646-.388 1.049-.543.08 0 .08-.078.161-.078a5.162 5.162 0 001.049-.776l.08-.078c.323-.233.646-.543.969-.854l.242-.233c.242-.232.403-.465.645-.698.161-.156.323-.389.484-.544.161-.233.323-.388.484-.62.08-.079.161-.234.242-.311 0 0 0-.078.08-.078.485-.776.888-1.553 1.21-2.407 1.13-3.57.565-7.763-1.774-10.79z" fill="#008EC1"/><path d="M64.455 15.526H57.6v7.298h-4.276V4.735H57.6v6.91h6.856v-6.91h4.276v18.089h-4.276v-7.298zM82.041 4.735h3.872l7.825 18.089H89.14l-1.533-3.804h-7.421l-1.533 3.804h-4.437l7.825-18.089zm-.323 10.403h4.195l-2.097-5.124-2.098 5.124zm23.396 5.435c-5.002-.078-8.39-2.562-8.39-7.065s3.388-6.987 8.39-7.065v-1.94h4.275v1.94c4.921.078 8.39 2.64 8.39 7.065 0 4.503-3.388 7.065-8.39 7.065v2.407h-4.275v-2.407zm0-3.804v-6.6c-2.743.079-3.792 1.554-3.792 3.262 0 2.173 1.21 3.26 3.792 3.338zm4.356-6.521v6.598c2.823-.077 3.872-1.164 3.872-3.26-.081-1.786-1.049-3.26-3.872-3.338zm12.341-5.513h15.569v3.882h-5.646v14.207h-4.275V8.617h-5.648V4.735zm29.849-.31c5.728 0 10.002 3.571 10.002 9.316 0 5.512-4.274 9.316-10.002 9.316-5.728 0-10.003-3.57-10.003-9.316 0-5.201 3.952-9.316 10.003-9.316zm0 14.828c3.549 0 5.404-2.407 5.404-5.512 0-3.338-2.42-5.512-5.404-5.512-3.146 0-5.405 2.174-5.405 5.512-.081 3.105 2.339 5.512 5.405 5.512z" fill="#1A1919"/><path d="M168.197 4.735h10.729v3.882h-6.453v14.207h-4.276V4.735zm20.249 0h3.872l7.825 18.089h-4.598l-1.534-3.804h-7.421l-1.533 3.804h-4.355l7.744-18.089zm-.323 10.403h4.195l-2.097-5.124-2.098 5.124zm14.924 4.737l2.339-2.795c1.13 1.164 2.663 2.173 4.195 2.173 1.13 0 2.662-.465 2.662-1.94 0-1.087-.887-1.864-2.903-1.864h-1.695v-3.881h1.613c1.21 0 2.34-.544 2.34-1.63 0-1.165-.887-1.709-2.097-1.709s-2.34.544-3.308 1.864l-2.5-2.795c1.21-1.708 3.629-2.95 6.373-2.95 3.387 0 5.808 1.785 5.808 5.124 0 1.32-.646 2.794-2.34 3.881v.078c2.259.699 3.066 2.251 3.066 4.347 0 3.339-3.388 5.357-6.777 5.357-3.792 0-5.728-1.863-6.776-3.26z" fill="#008EC1"/><path d="M53.323 33.537h4.114v1.165h-2.823v5.822h-1.291v-6.987zm6.534-.077h1.13l3.065 6.987h-1.371l-.726-1.786h-3.066l-.806 1.863h-1.291l3.065-7.064zm-.565 4.114h2.098l-1.05-2.484-1.049 2.484zm5.163 1.864l.726-.854c.484.465 1.13.854 1.694.854.726 0 1.371-.31 1.371-1.01 0-.543-.403-.931-1.29-.931h-.726v-1.165h.726c.564 0 1.048-.31 1.048-.931s-.484-.854-1.048-.854c-.565 0-1.049.233-1.452.776l-.726-.854c.484-.621 1.371-1.087 2.34-1.087 1.29 0 2.177.699 2.177 1.941 0 .544-.322 1.164-.968 1.553.888.233 1.291.854 1.291 1.63 0 1.32-1.21 2.096-2.581 2.096-1.372 0-2.179-.62-2.582-1.164zm10.003-6.056c2.178 0 3.792 1.398 3.792 3.571 0 2.096-1.614 3.572-3.792 3.572s-3.791-1.398-3.791-3.572c0-1.94 1.532-3.57 3.791-3.57zm0 6.056c1.533 0 2.42-1.087 2.42-2.485 0-1.475-1.048-2.484-2.42-2.484-1.371 0-2.42 1.01-2.42 2.484 0 1.475 1.049 2.485 2.42 2.485zm9.762-4.814h-3.227v5.823h-1.29V33.46h5.807v6.987h-1.29v-5.823zm6.534-1.242c2.178 0 3.792 1.398 3.792 3.571 0 2.096-1.614 3.572-3.792 3.572s-3.791-1.398-3.791-3.572c0-1.94 1.533-3.57 3.791-3.57zm0 6.056c1.533 0 2.42-1.087 2.42-2.485 0-1.475-1.048-2.484-2.42-2.484-1.371 0-2.42 1.01-2.42 2.484 0 1.475 1.049 2.485 2.42 2.485zm10.809.388c-.484.465-1.371.776-2.34.776-2.258 0-3.71-1.397-3.71-3.571 0-2.019 1.29-3.571 3.71-3.571.969 0 1.695.31 2.179.698l-.565.932c-.403-.31-.887-.466-1.613-.466-1.372 0-2.34.932-2.34 2.484 0 1.476 1.049 2.485 2.501 2.485.645 0 1.21-.156 1.694-.544l.484.777zm.324-6.289h5.969v1.165h-2.339v5.822h-1.291v-5.822h-2.339v-1.165zm8.631-.077h1.129l3.065 6.987h-1.371l-.726-1.786h-3.066l-.726 1.786h-1.29l2.985-6.987zm-.565 4.114h2.097l-1.048-2.484-1.049 2.484zm10.003 2.95h-1.29v-2.872c-.323.233-.968.466-1.694.466-1.13 0-2.179-.544-2.179-2.252v-2.329h1.291v2.019c0 1.086.565 1.475 1.291 1.475.565 0 1.049-.233 1.371-.466v-3.028h1.291v6.987h-.081zm4.195-7.064h1.13l3.065 6.987h-1.372l-.726-1.786h-3.065l-.726 1.786h-1.291l2.985-6.987zm-.564 4.114h2.097l-1.048-2.484-1.049 2.484zm10.084-2.95h-2.179l-.161 1.32c-.404 4.037-1.371 4.736-2.823 4.503v-1.242c.564.077 1.291-.156 1.613-4.348l.08-1.397h4.598v6.987h-1.29v-5.823h.162zm4.518 1.32c.323-.078.645-.078.806-.078 1.855 0 2.742.854 2.742 2.252 0 1.475-1.048 2.406-2.984 2.406h-1.855v-6.987h1.291v2.407zm0 1.087v2.251h.725c.969 0 1.534-.388 1.534-1.242 0-.776-.565-1.165-1.534-1.165-.161.156-.402.156-.725.156zm9.68.466h-3.308v2.95h-1.29V33.46h1.29v2.872h3.308V33.46h1.29v6.987h-1.29v-2.95zm5.404-4.037h1.129l3.066 6.987h-1.371l-.726-1.786h-3.066l-.726 1.786h-1.29l2.984-6.987zm-.564 4.114h2.097l-1.049-2.484-1.048 2.484zm8.066-4.037h1.291v3.338l2.824-3.338h1.532l-2.985 3.26 3.146 3.727h-1.613l-2.985-3.571v3.571h-1.29v-6.987h.08zm9.761-.155c2.179 0 3.792 1.398 3.792 3.571 0 2.096-1.613 3.572-3.792 3.572-2.177 0-3.79-1.398-3.79-3.572 0-1.94 1.532-3.57 3.79-3.57zm0 6.056c1.534 0 2.421-1.087 2.421-2.485 0-1.475-1.048-2.484-2.421-2.484-1.371 0-2.419 1.01-2.419 2.484 0 1.475 1.048 2.485 2.419 2.485zm5.244-5.901h1.291l2.501 3.26 2.338-3.26h1.21v6.987h-1.29v-5.046l-2.258 3.105h-.163l-2.338-3.105v5.046h-1.291v-6.987zm13.876 1.087h-3.227v5.823h-1.29V33.46h5.808v6.987h-1.291v-5.823zm5.484-1.164h1.13l3.065 6.987h-1.372l-.726-1.786h-3.064l-.727 1.786h-1.452l3.146-6.987zm-.565 4.114h2.099l-1.05-2.484-1.049 2.484zm10.407-.077h-3.307v2.95h-1.291V33.46h1.291v2.872h3.307V33.46h1.292v6.987h-1.292v-2.95zm3.469-3.96h1.291v6.987h-1.291v-6.987zm6.697 4.581h-1.049l-1.613 2.406h-1.453l1.856-2.64c-.646-.31-1.291-.931-1.291-1.94 0-1.32.888-2.407 2.985-2.407h1.775v6.987h-1.292v-2.406h.082zm0-1.165v-2.251h-.808c-.806 0-1.371.465-1.371 1.164 0 .621.484 1.01 1.049 1.087h1.13z" fill="#1A1919"/></g></g><defs><clipPath id="clip0_1_157"><path fill="#fff" d="M0 0h217v42H0z"/></clipPath></defs></svg>