<svg xmlns="http://www.w3.org/2000/svg" viewBox="0 0 303.85 61.25"><defs><style>.cls-1{fill:#1d1f23}.cls-2{fill:#219fda}</style></defs><g id="Слой_2" data-name="Слой 2"><g id="Слой_1-2" data-name="Слой 1"><path class="cls-1" d="M90.45 22.62h-9.61v10.62h-6.03V6.87h6.03v10.1h9.61V6.87h6.02v26.37h-6.02V22.62zm24.66-15.75h5.39l11 26.37H125l-2.18-5.54H112.4l-2.19 5.54h-6.07l11-26.37zm-.45 15.18h5.91l-2.94-7.46-3 7.46zM147.52 30c-7-.08-11.71-3.73-11.71-10.32s4.78-10.14 11.71-10.32V6.57h6v2.79c6.86.15 11.79 3.88 11.79 10.32S160.56 29.92 153.55 30v3.54h-6V30zm0-5.54v-9.57c-3.84.12-5.31 2.23-5.31 4.79 0 3.05 1.62 4.71 5.31 4.78m6-9.57v9.57c4-.07 5.39-1.69 5.39-4.78 0-2.49-1.36-4.67-5.39-4.79m17.36-8.02h21.85v5.65h-7.91v20.72h-6.03V12.52h-7.91V6.87zm41.87-.45c8 0 14 5.23 14 13.64 0 8-6 13.63-14 13.63s-14-5.23-14-13.63c0-7.65 5.61-13.64 14-13.64m0 21.62c5 0 7.61-3.54 7.61-8 0-4.83-3.35-8-7.61-8s-7.61 3.16-7.61 8a7.72 7.72 0 007.61 8"/><path class="cls-2" d="M236 6.87h15.06v5.65h-9.04v20.72H236V6.87zm28.39 0h5.38l11 26.37h-6.45l-2.18-5.54h-10.47l-2.18 5.54h-6.07l11-26.37zm-.46 15.18h5.92l-2.94-7.46-3 7.46zM284.94 29l3.27-4.11c1.55 1.73 3.77 3.2 5.92 3.2 1.62 0 3.69-.64 3.69-2.79 0-1.54-1.24-2.67-4.11-2.67h-2.41v-5.7h2.26c1.74 0 3.24-.75 3.24-2.41s-1.2-2.45-2.9-2.45-3.27.79-4.67 2.75l-3.46-4.07a10.94 10.94 0 018.93-4.33c4.7 0 8.13 2.6 8.13 7.42a6.79 6.79 0 01-3.31 5.61v.12c3.12 1 4.33 3.27 4.33 6.29 0 4.86-4.75 7.83-9.46 7.83-5.35 0-8.06-2.63-9.45-4.74"/><path class="cls-1" d="M74.94 59.13h2.13V47.72h5.61v-2.05h-7.74v13.46zm14.62-13.49H85.9v13.49H88V54.2h1.65c3.4 0 4.92-2.18 4.92-4.33 0-1.29-.49-4.28-5-4.28m2.82 4.26c0 1.47-1 2.31-2.75 2.31-.5 0-1 0-1.59-.07v-4.38h1.66c1.78 0 2.68.74 2.68 2.22m11.1 3.49l-4.62-7.74h-2.43l6 9.94-.16.34c-.36.77-.8 1.15-1.33 1.15a1.31 1.31 0 01-.83-.29l-.29-.19-.76 1.84.16.13a3 3 0 001.74.53c1.47 0 2.47-.91 3.46-3.12l4.64-10.33h-2.21l-3.39 7.74zm8.72 5.71h2.13V47.72h6.43v11.41h2.13V45.67h-10.69v13.46zm21.33-13.53h-1.72L126 59.13h2.19l1.64-3.91h5.5l1.67 3.91h2.29l-5.75-13.53zm1 7.58h-3.78l1.89-4.49 1.89 4.49z"/><path class="cls-2" d="M59.57 20.4a.32.32 0 01.09 0 24.82 24.82 0 00-10-13.78 13.38 13.38 0 00-7.26-2.45 7.52 7.52 0 00-3.63.83 7.44 7.44 0 00-4.1 6.68c0 4.66 2.7 7.41 6.79 11.57A76 76 0 0148.31 31a20.09 20.09 0 012.47 18.7 20.49 20.49 0 01-4.54 7.3l-.06.06A25.44 25.44 0 0057 45.62c4.53-9.73 1.17-16.48-.84-20.52-1-2.07-1.77-3.59-1-4.72.87-1.31 2.47-1.37 4.44 0"/><path class="cls-1" d="M37.43 43.48c-2.88-4.46-7-6-11.3-7.7s-8.63-3.33-12.37-7.71A19.28 19.28 0 019.4 12.54a20.32 20.32 0 011.42-5 .66.66 0 010-.15c-.43.33-.86.68-1.27 1A30.45 30.45 0 000 30.62 30.8 30.8 0 0021.88 60a15.29 15.29 0 003.8.49 13 13 0 0010.68-5.29 12.11 12.11 0 002.19-5.48 9.06 9.06 0 00-1.12-6.24"/><path class="cls-2" d="M46 32.74a72 72 0 00-6.6-7.43c-4.25-4.34-7.61-7.75-7.61-13.59s4.35-9.21 8.43-10.19c-.2-.07-.44-.1-.65-.16A31.35 31.35 0 0030.62 0a23.59 23.59 0 00-12.78 3.33C15.06 5 12.87 8.78 12.26 13A16.53 16.53 0 0016 26.19c3.27 3.83 7.31 5.39 11.21 6.89 4.57 1.76 9.29 3.59 12.69 8.83 2.3 3.57 2.28 8.56.15 12.83-.14.29-.3.56-.46.83l-.13.24a12.62 12.62 0 01-7.24 5.44 23.92 23.92 0 004.31-1l.41-.12c.18-.06.35-.15.52-.22s.64-.26.95-.41l.6-.28c.48-.24 1-.52 1.42-.81l.19-.12a17.47 17.47 0 001.51-1.09l.12-.1q.67-.56 1.32-1.2c.1-.12.22-.24.33-.35.29-.31.57-.63.85-1s.43-.53.63-.8.43-.6.64-.91l.3-.44.08-.13a19.9 19.9 0 001.7-3.54 17.18 17.18 0 00-2.07-16"/></g></g></svg>