<svg width="251" height="51" viewBox="0 0 251 51" fill="none" xmlns="http://www.w3.org/2000/svg"><g clip-path="url(#clip0_1_106)"><mask id="mask0_1_106" style="mask-type:luminance" maskUnits="userSpaceOnUse" x="0" y="0" width="250" height="51"><path d="M249.873.996H0v49.103h249.873V.996z" fill="#fff"/></mask><g mask="url(#mask0_1_106)" fill="#fff"><path d="M9.031 6.72c-.372.363-.745.726-1.117.998.372-.272.651-.545 1.024-.817 0 0 .093-.09.093-.182zM30.35 49.198l-1.118.272c.372 0 .745-.09 1.117-.272zm18.618-31.859c.093 0 .093 0 0 0-1.21-4.448-4.096-8.26-8.1-10.983-1.861-1.27-4.096-1.997-5.958-1.997a6.28 6.28 0 00-2.979.726c-2.234 1.271-3.351 3.086-3.351 5.356 0 3.72 2.234 5.9 5.586 9.257 1.769 1.725 3.724 3.722 5.679 6.173 3.165 4.084 3.91 9.802 2.048 14.976a16.925 16.925 0 01-3.724 5.9l-.093.09c4.003-2.178 6.982-5.355 8.844-9.167 3.724-7.806.93-13.252-.652-16.428-.93-1.816-1.582-2.996-.93-3.903.744-1.09 2.047-1.09 3.63 0z"/><path d="M30.815 35.854c-2.327-3.54-5.772-4.81-9.31-6.172-3.537-1.361-7.075-2.632-10.147-6.172-3.072-3.449-4.283-7.896-3.631-12.434.186-1.453.652-2.814 1.21-3.994 0 0 0-.09.093-.09a3.354 3.354 0 00-1.117.725C2.886 12.347 0 18.7 0 25.597c0 10.712 7.355 20.423 17.968 23.51 1.024.272 2.048.363 3.165.363 3.538 0 6.796-1.543 8.751-4.175a9.233 9.233 0 001.769-4.357c.372-1.906.093-3.63-.838-5.083z"/><path d="M37.797 27.231c-1.862-2.36-3.724-4.266-5.4-5.99-3.538-3.45-6.237-6.263-6.237-10.892 0-4.81 3.537-7.352 6.889-8.17-.187-.09-.373-.09-.559-.09C30.163 1.454 27.65 1 25.23 1c-4.097 0-7.355.817-10.52 2.632-2.328 1.362-4.097 4.357-4.562 7.715-.373 2.27-.373 6.717 3.072 10.62 2.7 3.086 6.051 4.356 9.217 5.536 3.724 1.453 7.634 2.905 10.426 7.08 1.862 2.814 1.862 6.898.094 10.256-.094.273-.28.454-.373.636 0 .09-.093.09-.093.181-1.396 2.178-3.63 3.812-5.958 4.357 1.21-.182 2.42-.454 3.538-.817.093 0 .186-.09.372-.09.186-.092.28-.092.465-.182.28-.091.56-.182.745-.363.186-.091.373-.182.466-.273.372-.181.744-.454 1.21-.635.093 0 .093-.09.186-.09a5.964 5.964 0 001.21-.909l.094-.09c.372-.273.744-.636 1.117-.999l.279-.272c.28-.272.465-.545.745-.817.186-.181.372-.454.558-.635.187-.272.373-.454.559-.726.093-.091.186-.273.28-.363 0 0 0-.091.092-.091a15.915 15.915 0 001.397-2.814c1.303-4.175.651-9.076-2.048-12.616zm36.588-8.079h-7.913v8.532h-4.934V6.536h4.934v8.078h7.913V6.536h4.934v21.148h-4.934v-8.532zM94.679 6.536h4.468l9.031 21.148h-5.307l-1.768-4.448h-8.565l-1.77 4.448h-5.12l9.03-21.148zm-.373 12.162h4.841l-2.42-5.99-2.42 5.99zm27 6.354c-5.772-.09-9.682-2.995-9.682-8.26 0-5.264 3.91-8.168 9.682-8.259v-2.27h4.935v2.27c5.678.09 9.682 3.086 9.682 8.26 0 5.264-3.91 8.26-9.682 8.26v2.813h-4.935v-2.814zm0-4.447V12.89c-3.165.09-4.375 1.815-4.375 3.812 0 2.541 1.396 3.812 4.375 3.903zm5.028-7.625v7.715c3.258-.09 4.468-1.361 4.468-3.812-.093-2.087-1.21-3.812-4.468-3.902zm14.241-6.444h17.968v4.538h-6.517v16.61h-4.933v-16.61h-6.518V6.536zm34.447-.362c6.611 0 11.544 4.175 11.544 10.891 0 6.445-4.933 10.892-11.544 10.892-6.61 0-11.543-4.175-11.543-10.892 0-6.08 4.561-10.891 11.543-10.891zm0 17.336c4.097 0 6.237-2.814 6.237-6.445 0-3.903-2.792-6.444-6.237-6.444-3.63 0-6.237 2.541-6.237 6.444-.093 3.63 2.699 6.445 6.237 6.445zm19.086-16.974h12.381v4.538h-7.447v16.61h-4.934V6.536zm23.367 0h4.469l9.031 21.148h-5.307l-1.77-4.448h-8.565l-1.768 4.448h-5.027l8.937-21.148zm-.372 12.162h4.841l-2.42-5.99-2.421 5.99zm17.223 5.538l2.7-3.268c1.304 1.362 3.072 2.542 4.841 2.542 1.303 0 3.072-.545 3.072-2.27 0-1.27-1.024-2.178-3.351-2.178h-1.956v-4.538h1.862c1.397 0 2.701-.635 2.701-1.906 0-1.361-1.025-1.997-2.421-1.997s-2.7.636-3.818 2.179l-2.885-3.268c1.397-1.997 4.189-3.449 7.355-3.449 3.909 0 6.703 2.088 6.703 5.99 0 1.543-.746 3.268-2.7 4.539v.09c2.606.817 3.538 2.633 3.538 5.083 0 3.903-3.91 6.263-7.821 6.263-4.376 0-6.61-2.178-7.82-3.812zM61.538 40.21h4.748v1.36h-3.259v6.808h-1.49v-8.169zm7.54-.091h1.303l3.538 8.168h-1.583l-.838-2.087H67.96l-.93 2.178h-1.49l3.538-8.26zm-.652 4.81h2.42l-1.21-2.904-1.21 2.904zm5.958 2.179l.838-.998c.559.544 1.303.998 1.955.998.838 0 1.583-.363 1.583-1.18 0-.635-.466-1.09-1.49-1.09h-.838v-1.36h.838c.652 0 1.21-.364 1.21-1.09 0-.726-.558-.998-1.21-.998-.651 0-1.21.272-1.676.907l-.837-.998c.558-.726 1.582-1.27 2.7-1.27 1.489 0 2.513.816 2.513 2.268 0 .636-.372 1.362-1.117 1.816 1.024.272 1.49.998 1.49 1.906 0 1.543-1.397 2.45-2.98 2.45-1.582 0-2.513-.726-2.979-1.361zm11.545-7.08c2.513 0 4.375 1.634 4.375 4.175 0 2.451-1.862 4.176-4.375 4.176-2.514 0-4.376-1.634-4.376-4.175 0-2.27 1.769-4.176 4.376-4.176zm0 7.08c1.769 0 2.793-1.27 2.793-2.904 0-1.725-1.21-2.905-2.793-2.905-1.583 0-2.793 1.18-2.793 2.904 0 1.725 1.21 2.905 2.793 2.905zm11.264-5.628H93.47v6.807h-1.49V40.12h6.704v8.168h-1.49V41.48zm7.541-1.452c2.514 0 4.376 1.634 4.376 4.175 0 2.451-1.862 4.176-4.376 4.176-2.514 0-4.375-1.634-4.375-4.175 0-2.27 1.768-4.176 4.375-4.176zm0 7.08c1.769 0 2.793-1.27 2.793-2.904 0-1.725-1.21-2.905-2.793-2.905-1.582 0-2.793 1.18-2.793 2.904 0 1.725 1.211 2.905 2.793 2.905zm12.474.453c-.559.545-1.583.908-2.7.908-2.607 0-4.282-1.634-4.282-4.175 0-2.36 1.489-4.175 4.282-4.175 1.117 0 1.955.363 2.514.816l-.652 1.09c-.465-.363-1.024-.545-1.862-.545-1.583 0-2.7 1.09-2.7 2.905 0 1.724 1.21 2.904 2.886 2.904.745 0 1.397-.181 1.955-.635l.559.907zm.374-7.351h6.889v1.36h-2.7v6.808h-1.49v-6.807h-2.699v-1.362zm9.961-.091h1.303l3.538 8.168h-1.583l-.837-2.087h-3.538l-.838 2.087h-1.49l3.445-8.168zm-.652 4.81h2.421l-1.21-2.904-1.211 2.904zm11.545 3.449h-1.49V45.02c-.372.272-1.117.544-1.955.544-1.303 0-2.514-.635-2.514-2.632V40.21h1.49v2.36c0 1.27.652 1.725 1.489 1.725.652 0 1.211-.273 1.583-.545v-3.54h1.49v8.169h-.093zm4.84-8.259h1.304l3.538 8.168h-1.584l-.838-2.087h-3.536l-.839 2.087h-1.489l3.444-8.168zm-.651 4.81h2.421l-1.21-2.904-1.211 2.904zm11.637-3.449h-2.514l-.186 1.543c-.466 4.72-1.583 5.537-3.259 5.264v-1.452c.652.09 1.49-.181 1.862-5.083l.093-1.633h5.306v8.168h-1.488V41.48h.186zm5.215 1.543c.372-.09.744-.09.93-.09 2.14 0 3.165.998 3.165 2.631 0 1.725-1.211 2.814-3.445 2.814h-2.14v-8.169h1.49v2.814zm0 1.27v2.633h.836c1.118 0 1.77-.454 1.77-1.453 0-.907-.652-1.36-1.77-1.36-.186.18-.464.18-.836.18zm11.17.545h-3.818v3.45h-1.488v-8.17h1.488v3.359h3.818v-3.358h1.489v8.168h-1.489v-3.449zm6.238-4.719h1.302l3.538 8.168h-1.582l-.838-2.087h-3.538l-.838 2.087h-1.489l3.445-8.168zm-.652 4.81h2.42l-1.21-2.904-1.21 2.904zm9.309-4.719h1.49v3.902l3.258-3.903h1.768l-3.444 3.812 3.63 4.357h-1.862l-3.444-4.175v4.175h-1.489v-8.169h.093zm11.265-.182c2.514 0 4.377 1.634 4.377 4.175 0 2.451-1.863 4.176-4.377 4.176-2.512 0-4.374-1.634-4.374-4.175 0-2.27 1.768-4.176 4.374-4.176zm0 7.08c1.77 0 2.794-1.27 2.794-2.904 0-1.725-1.21-2.905-2.794-2.905-1.582 0-2.792 1.18-2.792 2.904 0 1.725 1.21 2.905 2.792 2.905zm6.05-6.898h1.49l2.887 3.811 2.698-3.812h1.397v8.169h-1.489v-5.9l-2.606 3.63h-.188l-2.699-3.63v5.9h-1.49v-8.169zm16.014 1.27h-3.724v6.807h-1.489V40.12h6.703v8.168h-1.49V41.48zm6.33-1.361h1.304l3.536 8.168h-1.582l-.838-2.087h-3.537l-.838 2.087h-1.676l3.631-8.168zm-.652 4.81h2.422l-1.212-2.904-1.21 2.904zm12.011-.091h-3.817v3.45h-1.49v-8.17h1.49v3.359h3.817v-3.358h1.49v8.168h-1.49v-3.449zm4.003-4.628h1.49v8.168h-1.49v-8.169zm7.728 5.354h-1.211l-1.862 2.814h-1.676l2.142-3.086c-.746-.363-1.49-1.09-1.49-2.27 0-1.542 1.024-2.813 3.445-2.813h2.048v8.169h-1.49v-2.814h.094zm0-1.361V41.57h-.932c-.931 0-1.582.544-1.582 1.361 0 .726.558 1.18 1.21 1.27h1.304z"/></g></g><defs><clipPath id="clip0_1_106"><path fill="#fff" transform="translate(0 .996)" d="M0 0h250.428v49.104H0z"/></clipPath></defs></svg>