<svg width="53" height="41" viewBox="0 0 53 41" fill="none" xmlns="http://www.w3.org/2000/svg"><path d="M14.673.683a3.251 3.251 0 011.163-.576 3.198 3.198 0 012.503.37c.374.228.7.53.96.89.26.359.45.767.558 1.202a3.531 3.531 0 01-.358 2.589 3.38 3.38 0 01-.86.992c-5.168 4.008-8.129 7.907-9.824 11.31a11.205 11.205 0 017.027.417 11.645 11.645 0 015.492 4.552 12.26 12.26 0 011.922 7.002 12.217 12.217 0 01-2.36 6.858 11.574 11.574 0 01-5.766 4.172 11.202 11.202 0 01-7.039-.057 11.59 11.59 0 01-5.702-4.268c-1.426-2-2.214-4.41-2.254-6.895a26.654 26.654 0 011.678-12.348C3.786 11.747 7.642 6.137 14.673.683zm29.738 0a3.255 3.255 0 011.162-.576 3.198 3.198 0 012.504.37c.373.228.7.53.96.89.26.359.45.767.557 1.202a3.53 3.53 0 01-.358 2.589 3.38 3.38 0 01-.86.992c-5.168 4.008-8.128 7.907-9.823 11.31a11.205 11.205 0 017.027.417 11.645 11.645 0 015.492 4.552 12.26 12.26 0 011.922 7.002 12.216 12.216 0 01-2.36 6.858 11.574 11.574 0 01-5.767 4.172 11.202 11.202 0 01-7.038-.057 11.59 11.59 0 01-5.703-4.268c-1.426-2-2.213-4.41-2.253-6.895a26.653 26.653 0 011.678-12.348c1.976-5.146 5.829-10.756 12.86-16.21z" fill="#008EC1"/></svg>