<svg width="34" height="34" viewBox="0 0 34 34" fill="none" xmlns="http://www.w3.org/2000/svg"><path d="M16.582 2.764c-7.628 0-13.818 6.19-13.818 13.818 0 7.628 6.19 13.819 13.818 13.819 7.628 0 13.819-6.191 13.819-13.819 0-7.628-6.191-13.818-13.819-13.818zm6.412 9.396c-.207 2.184-1.106 7.49-1.562 9.936-.193 1.036-.58 1.381-.94 1.423-.8.069-1.409-.525-2.183-1.036-1.216-.802-1.907-1.3-3.081-2.073-1.368-.898-.484-1.396.304-2.197.207-.208 3.745-3.427 3.814-3.718a.275.275 0 00-.07-.248c-.082-.07-.193-.042-.29-.028-.124.028-2.059 1.313-5.83 3.856-.554.373-1.051.566-1.493.552-.498-.014-1.437-.276-2.142-.511-.87-.276-1.548-.428-1.493-.912.028-.249.374-.498 1.023-.76 4.035-1.755 6.716-2.916 8.056-3.468 3.842-1.604 4.63-1.88 5.154-1.88.111 0 .373.028.54.166.138.11.179.262.193.373-.014.083.014.332 0 .525z" fill="#959595"/></svg>