<svg width="33" height="33" viewBox="0 0 33 33" fill="none" xmlns="http://www.w3.org/2000/svg"><path d="M30.366 8.04a11.482 11.482 0 01-3.297.925 5.76 5.76 0 002.52-3.19 11.578 11.578 0 01-3.645 1.408C24.885 6.03 23.398 5.36 21.709 5.36c-3.15 0-5.722 2.573-5.722 5.75 0 .455.053.897.147 1.313A16.341 16.341 0 014.288 6.419 5.688 5.688 0 003.51 9.3c0 1.997 1.005 3.766 2.56 4.77-.952 0-1.837-.267-2.614-.67v.041a5.753 5.753 0 004.61 5.642 5.655 5.655 0 01-2.586.094 5.735 5.735 0 005.36 3.993 11.42 11.42 0 01-7.143 2.466c-.455 0-.911-.027-1.367-.08a16.275 16.275 0 008.818 2.586c10.56 0 16.363-8.764 16.363-16.363 0-.254 0-.495-.014-.75a11.486 11.486 0 002.868-2.988z" fill="#959595"/></svg>