<svg width="34" height="34" viewBox="0 0 34 34" fill="none" xmlns="http://www.w3.org/2000/svg"><path d="M30.569 9.597a3.627 3.627 0 00-2.56-2.56c-2.26-.611-11.338-.611-11.338-.611s-9.079 0-11.338.611a3.627 3.627 0 00-2.56 2.56 37.445 37.445 0 00-.612 6.985c-.015 2.342.19 4.681.612 6.985a3.628 3.628 0 002.56 2.56c2.26.612 11.338.612 11.338.612s9.079 0 11.338-.612a3.628 3.628 0 002.56-2.56c.422-2.304.626-4.643.611-6.985a37.443 37.443 0 00-.611-6.985zm-16.8 11.338v-8.706l7.534 4.353-7.534 4.353z" fill="#959595"/></svg>